<mxfile host="app.diagrams.net" modified="2023-09-21T10:38:36.710Z" agent="Mozilla/5.0 (Windows NT 10.0; Win64; x64) AppleWebKit/537.36 (KHTML, like Gecko) Chrome/117.0.0.0 Safari/537.36 Edg/117.0.2045.31" version="21.8.0" etag="YWddphz0kYSYrH2Oizb6" type="github">
  <diagram name="Page-1" id="43TM3QBUFNhfxYBFh3Pn">
    <mxGraphModel>
      <root>
        <mxCell id="0" />
        <mxCell id="1" parent="0" />
      </root>
    </mxGraphModel>
  </diagram>
</mxfile>
